<svg xmlns="http://www.w3.org/2000/svg" width="628.79" height="743.29"><path d="m402.6 508.46-28.96 31.56c-13.15-8.59-26.03-18.54-38.59-29.6-6.12-5.34-12.15-10.96-18.13-16.81-8.18-7.99-16.21-16.44-24.02-25.17-53.07-59.06-97.28-131.72-125.51-186.67-18.31-36.22-34.03-74.22-43.85-114l-1.92-8.22c-4.34-16.44-7.95-33.52-9.18-50.79h43.02c-.41 4.93-.59 9.91-.64 14.8-.09 12.15.96 24.25 2.88 36.22.96 6.12 2.19 12.19 3.61 18.22 13.61 58.1 38.96 113.41 70.93 164.42 24.39 37.91 52.66 73.35 84.95 104.27 7.86 7.54 15.99 14.84 24.34 21.79 7.35 6.17 14.89 12.06 22.65 17.68 2.42 1.83 4.84 3.56 7.31 5.3 8.91 5.98 19.73 12.19 31.1 16.99Z" style="fill:#8747cc"/><path d="m545.94 200.01-11.19 37.54c-6.94-4.38-14.16-8.36-21.06-12.06-1.05-.55-2.06-1.1-3.06-1.64-61.29-25.67-128.39-36.17-195.39-36.63-67 .41-133.87 11.05-195.16 36.49l-.05.05c-12.74 5.48-27.45 13.66-39.69 23.7l-10.55-42.98c11.74-5.89 24.3-11.01 37.5-15.48 91.35-31.15 211.83-30.74 291.67-23.29 42.02 4.16 84.18 11.88 124.28 26.31.23.05.41.14.64.23 7.31 2.33 14.8 4.89 22.06 7.76Z" style="fill:#8747cc"/><path d="M519.21 65.48c-16.53-71.09-86.8-77.17-143.78-51.87-14.79 6.57-29.36 14.47-43.6 23.38-35.16 22.01-68.21 50.41-97.21 81.59-23.47 25.16-44.24 52.14-61.46 79.04-17.94 28.45-34.24 60.63-47.35 94.56-19.45 50.13-31.96 103.97-32.87 154.78-.09 4.11-.09 8.22 0 12.28 2.79 95.2 71.09 141.54 155.1 88.94 1.69-1.1 3.33-2.15 4.98-3.29l-19.45-37.3c-1.69.68-3.38 1.37-5.02 2.01-16.16 5.89-32.05 10.55-47.12 6.26-19.77-6.94-16.94-35.89-15.25-54.7v-.09c5.89-42.83 22.78-83.74 43.42-122.87 15.62-29.59 33.42-58.17 50.22-85.79 10.87-16.71 21.92-33.88 33.42-50.82 27.58-40.64 57.99-80.22 95.61-110.18a256.2 256.2 0 0 1 18.95-13.88c16.07-9.63 31.82-19.22 49.31-15.16 18.81 9.5 22.69 39.27 22.56 64.88 1.21 11.61 37.37 17.4 40.13 0 3.24-20.41 3.97-41.32-.59-61.78Z" style="fill:#bc83fb"/><ellipse cx="200.71" cy="228.86" rx="57.76" ry="27.23" transform="rotate(-59.36 200.708 228.86)" style="fill:#e6c9ff"/><ellipse cx="310.37" cy="92.39" rx="44.43" ry="20.94" transform="rotate(-42.1 310.375 92.38)" style="fill:#e6c9ff"/><ellipse cx="406.33" cy="31.51" rx="27.59" ry="13" transform="rotate(-14.63 406.207 31.517)" style="fill:#e6c9ff"/><ellipse cx="134.38" cy="389.47" rx="44.43" ry="20.94" transform="rotate(-76.62 134.373 389.459)" style="fill:#e6c9ff"/><ellipse cx="127.1" cy="502.88" rx="13" ry="27.59" transform="rotate(-14.09 127.125 502.965)" style="fill:#e6c9ff"/><path d="M388.85 91.41c-37.62 29.95-68.03 69.54-95.61 110.18-3.2-17.72-15.25-60.18-58.63-83.01C263.6 87.39 296.66 59 331.82 36.99c13.83 8.63 39.68 27.08 57.03 54.43ZM519.8 127.27c-1.74 10.96-4.2 21.79-6.99 32.29-.64 2.79-1.28 5.53-1.96 8.27-9.77 39.74-25.49 77.74-43.8 113.95-35.17 66.09-74.77 131.45-125.51 186.71-7.9 8.63-16.12 17.04-24.62 25.12-5.8 5.62-11.78 11.05-17.9 16.31-14.48 12.51-29.78 24.25-46.04 34.99l-19.41-37.27c10.05-4.25 20.1-9.55 29.37-16.17 2.47-1.74 4.89-3.47 7.31-5.3 7.76-5.62 15.3-11.56 22.65-17.72 8.36-6.94 16.44-14.2 24.3-21.74 32.34-30.92 60.61-66.32 85-104.27 33.16-52.8 59.15-110.25 72.39-170.54.96-4.48 1.83-8.95 2.47-13.43 1.64-10.23 2.51-20.6 2.6-30.92v-.27h40.15Z" style="fill:#8747cc"/><path d="M508.75 292.45c-13.15-34.02-29.45-66.34-47.44-94.83-47.07-73.69-121.36-147.98-202.27-184.01-57.17-25.39-127.25-19.09-143.78 51.87-3.2 14.34-3.79 28.86-2.79 43.28 1.29 18.59 41.91 12.07 43.01 0 1.83-20 7.49-39.13 21.87-46.39 17.49-4.06 33.24 5.52 49.31 15.16 63.33 42.1 106.93 111.64 147.98 174.87 16.85 27.67 34.61 56.3 50.22 85.84 20.64 39.13 37.49 79.99 43.42 122.82 1.69 18.54 4.57 48.08-15.25 54.79-15.25 3.88-33.51-.27-50.41-7.44l-28.99 31.6c19.04 12.46 38.58 22.01 58.44 27.67 71.96 16.16 108.17-45.57 109.44-108.44.09-4.02.09-8.04 0-12.1-.87-50.77-13.38-104.6-32.78-154.69Z" style="fill:#bc83fb"/><circle cx="317.24" cy="285.14" r="41.11" style="fill:#8747cc"/><ellipse cx="433.08" cy="228.86" rx="27.27" ry="57.85" transform="rotate(-30.64 433.104 228.86)" style="fill:#e6c9ff"/><ellipse cx="323.42" cy="92.39" rx="20.94" ry="44.43" transform="rotate(-47.9 323.421 92.39)" style="fill:#e6c9ff"/><ellipse cx="227.47" cy="31.51" rx="13" ry="27.59" transform="rotate(-75.37 227.478 31.504)" style="fill:#e6c9ff"/><ellipse cx="499.41" cy="389.47" rx="20.94" ry="44.43" transform="rotate(-13.38 499.537 389.524)" style="fill:#e6c9ff"/><ellipse cx="506.69" cy="502.88" rx="27.59" ry="13" transform="rotate(-75.91 506.672 502.874)" style="fill:#e6c9ff"/><path d="M541.54 447.14c-42.37 24.24-73.24 13.93-73.24 13.93-5.94-42.83-22.78-83.69-43.42-122.82 44.06-11.69 70.22-31.92 83.88-45.8 19.41 50.09 31.92 103.92 32.78 154.69ZM209.6 338.2c-20.64 39.13-37.53 80.04-43.42 122.87v.09c-3.15.96-33.06 8.95-73.24-14.2.91-50.82 13.42-104.65 32.87-154.78 13.51 13.88 39.63 34.2 83.78 46.02Z" style="fill:#8747cc"/><path d="M603.83 235.93c-16.36-16.36-36.71-27.51-57.87-35.91l-11.2 37.56c16.89 10.67 32.31 23.87 38.63 41.56 5.33 20.45-20.98 33.69-37.69 42-67.65 30-147.57 29.42-220.95 30.09-73.25-1.47-153.12-1.38-220.33-32.18-16.09-8.27-41.87-21.33-37.03-41.16 3.73-11.33 12.4-21.6 22.98-30.4l-10.58-42.98c-16.45 8.18-31.29 17.82-43.96 29.07-50.94 50.67-19.2 112.68 31.82 146.59 71.65 47.65 171.75 70.58 256.78 70.89 85.21-.18 184.86-22.31 256.82-69.92 50.72-33.69 82.23-94.54 32.58-145.21Z" style="fill:#bc83fb"/><ellipse cx="314.88" cy="410.44" rx="56.3" ry="26.54" style="fill:#e6c9ff"/><ellipse cx="483.59" cy="386.3" rx="43.25" ry="20.39" transform="rotate(-17.26 483.522 386.285)" style="fill:#e6c9ff"/><ellipse cx="582.19" cy="336.14" rx="26.86" ry="12.66" transform="rotate(-44.73 582.242 336.147)" style="fill:#e6c9ff"/><ellipse cx="147.46" cy="386.3" rx="20.39" ry="43.25" transform="rotate(-72.74 147.471 386.312)" style="fill:#e6c9ff"/><ellipse cx="48.86" cy="336.14" rx="12.66" ry="26.86" transform="rotate(-45.27 48.844 336.119)" style="fill:#e6c9ff"/><path d="M120.04 223.76c-12.74 5.48-27.45 13.66-39.69 23.7-13.4 0-18.35-32.25-10.55-42.98 11.74-5.89 24.3-11.01 37.5-15.48 8.04 8.54 11.42 22.33 12.74 34.76ZM545.94 200.01c8.11 11.43-1.44 37.54-11.19 37.54-6.94-4.38-14.16-8.36-21.06-12.06 1-11.42 3.75-24.25 10.18-33.25 7.31 2.33 14.8 4.89 22.06 7.76ZM402.62 508.44c7.69 11.94-16.3 36.46-28.96 31.56-13.15-8.59-26.03-18.54-38.59-29.6 5.98-9.64 15.16-19.37 29.14-24.25 2.42 1.83 4.84 3.56 7.31 5.3 8.91 5.98 19.73 12.19 31.1 16.99ZM299.04 509.9c-14.48 12.51-29.78 24.25-46.04 34.99-14.09 4.91-29.78-23.96-19.41-37.27 10.05-4.25 20.1-9.55 29.37-16.17 2.47-1.74 4.89-3.47 7.31-5.3 13.75 4.8 22.84 14.3 28.77 23.75ZM519.8 127.27c-1.74 10.96-4.2 21.79-6.99 32.29-.64 2.79-1.28 5.53-1.96 8.27-11.01 0-23.84-2.01-33.8-9.36 1.64-10.23 2.51-20.6 2.6-30.92v-.27h40.15ZM157.7 159.79c-10.37 6.76-23.29 8.27-34.16 7.99l-1.92-8.22c-4.34-16.44-7.95-33.52-9.18-50.79h43.02c-.41 4.93-.59 9.91-.64 14.8-.09 12.15.96 24.25 2.88 36.22Z" style="fill:#bc83fb"/><path d="M30.13 708.36v-64.61c0-2.23 1.82-3.24 3.04-3.24h23.29c2.03 0 3.24 1.01 3.24 3.24v61.57c0 7.09 4.05 10.73 9.11 10.73h9.72c5.67 0 10.33-3.44 10.33-10.73v-61.57c0-2.23 1.82-3.24 3.04-3.24h23.29c2.23 0 3.44 1.01 3.44 3.24v94.59c0 2.23-1.22 3.44-3.44 3.44H91.9c-1.21 0-3.04-1.21-3.04-3.44v-6.68h-3.24c-4.05 6.89-12.35 10.94-22.89 10.94h-1.82c-22.69 0-30.79-12.56-30.79-34.23ZM138.89 713.83c0-2.84 1.22-4.46 3.24-4.46h22.48c2.43 0 3.44 1.01 3.85 2.63 1.82 4.46 4.66 5.67 10.33 5.67h6.68c7.9 0 9.11-3.65 9.11-6.08 0-3.04.2-6.68-9.52-7.49l-9.72-1.01c-29.77-3.24-36.66-14.58-36.66-31.39 0-23.29 14.18-32 35.65-32h13.57c20.66 0 34.23 11.54 34.23 30.99 0 2.23-1.01 3.44-3.65 3.44h-20.05c-2.63 0-5.06-.81-5.47-3.24-1.01-3.65-3.65-6.08-8.91-6.08h-8.71c-5.06 0-6.89 2.63-6.89 6.08 0 2.63.2 6.68 9.32 7.7l9.52 1.01c28.56 3.04 37.07 10.33 37.07 30.79 0 22.48-11.75 32.41-38.89 32.41h-9.32c-24.31 0-37.27-9.72-37.27-28.96ZM242.6 707.14v-31.8c0-21.67 10.53-35.65 37.67-35.65h10.74c26.94 0 37.67 14.18 37.67 35.85v21.06c0 4.05-2.23 6.48-6.89 6.48h-49.62v4.05c0 6.28 4.66 10.94 14.79 10.94h2.03c13.37 0 18.43-1.42 24.3-4.25 1.82-.81 3.44-.61 4.66 1.42l6.68 10.33c1.21 1.62 1.21 3.24.41 4.25-7.9 7.7-22.08 12.96-35.85 12.96h-3.24c-32.61 0-43.34-14.79-43.34-35.65Zm56.31-25.32v-6.08c0-7.29-4.46-9.72-9.32-9.72h-7.9c-5.27 0-9.52 2.23-9.52 9.52v6.28h26.74ZM349.75 643.75c0-2.23 1.22-3.24 3.44-3.24h22.89c2.23 0 3.44 1.01 3.44 3.24v94.59c0 2.23-1.22 3.44-3.44 3.44h-22.89c-2.23 0-3.44-1.21-3.44-3.44v-94.59Zm.2-19.04v-21.47c0-2.23 1.21-3.24 3.24-3.24h22.89c2.03 0 3.24 1.01 3.24 3.24v21.47c0 2.23-1.21 3.24-3.24 3.24h-22.89c-2.03 0-3.24-1.01-3.24-3.24ZM402.81 738.33v-94.59c0-2.23 1.21-3.24 3.24-3.24h23.29c1.21 0 3.04 1.01 3.04 3.24v6.68h3.24c4.05-6.89 12.56-10.74 23.09-10.74h1.82c22.69 0 30.79 12.36 30.79 34.23v64.41c0 2.23-1.82 3.44-3.04 3.44h-23.29c-2.23 0-3.44-1.21-3.44-3.44v-61.57c0-7.09-4.05-10.74-8.91-10.74h-9.72c-5.67 0-10.53 3.44-10.53 10.94v61.37c0 2.23-1.82 3.44-3.04 3.44h-23.29c-2.03 0-3.24-1.21-3.24-3.44ZM514.62 738.33v-135.1c0-2.23 1.21-3.24 3.24-3.24h23.09c2.03 0 3.24 1.01 3.24 3.24v72.92l32-32.81c1.82-1.82 3.44-2.84 5.87-2.84h23.29c2.63 0 6.08 3.24 1.82 7.49l-32.61 32.81 36.05 55.29c2.03 2.83.61 5.67-3.04 5.67h-21.06c-3.04 0-5.67-1.21-7.7-4.05l-23.9-37.27-10.73 10.74v27.14c0 2.23-1.22 3.44-3.24 3.44h-23.09c-2.03 0-3.24-1.21-3.24-3.44Z" style="fill:#280f21;stroke:#fff;stroke-miterlimit:10"/></svg>