<svg xmlns="http://www.w3.org/2000/svg" width="345.77" height="409.09"><path d="m221.43 279.51-15.82 17.33c-7.28-4.77-14.31-10.3-21.35-16.32-3.26-3.01-6.78-6.03-10.05-9.29-4.52-4.52-8.79-9.04-13.31-13.81-29.13-32.4-53.49-72.33-69.06-102.71-10.05-19.84-18.83-40.68-24.11-62.78-.25-1.51-.75-3.01-1-4.52-2.51-9.04-4.27-18.33-5.02-27.88h23.61c-.25 2.76-.25 5.52-.25 8.04 0 6.78.5 13.31 1.51 19.84.5 3.26 1.26 6.78 2.01 10.05 7.53 31.89 21.35 62.28 38.93 90.41 13.31 20.84 28.88 40.43 46.71 57.26 4.27 4.27 8.79 8.04 13.31 12.05 4.02 3.52 8.29 6.53 12.56 9.79 1.26 1 2.76 2.01 4.02 3.01 5.02 3.52 11.05 7.03 17.33 9.54Z" style="fill:#8747cc"/><path d="M300.28 110 294 130.59c-3.77-2.51-7.79-4.52-11.55-6.53-.5-.25-1.26-.5-1.76-1-33.65-14.06-70.57-19.84-107.48-20.09-36.92.25-73.58 6.03-107.23 20.09-7.03 3.01-15.07 7.53-21.85 13.06l-5.78-23.61c6.53-3.26 13.31-6.03 20.59-8.54 50.23-17.08 116.52-16.83 160.47-12.81 23.1 2.26 46.21 6.53 68.31 14.57 0 0 .25 0 .25.25 4.27 1 8.29 2.51 12.31 4.02Z" style="fill:#8747cc"/><path d="M285.47 36.17c-9.04-39.18-47.72-42.44-79.11-28.63-8.04 3.52-16.07 8.04-23.86 12.81-19.34 12.05-37.42 27.62-53.49 44.95-12.81 13.81-24.36 28.63-33.9 43.45-9.79 15.57-18.83 33.4-26.12 51.98-10.8 27.62-17.58 57.26-18.08 85.13v6.78c1.51 52.23 39.18 77.85 85.38 48.97 1-.5 1.76-1.26 2.76-1.76l-10.8-20.59c-1 .25-1.76.75-2.76 1-8.79 3.26-17.58 5.78-25.87 3.52-10.8-3.77-9.29-19.84-8.29-30.14 3.26-23.61 12.56-45.96 23.86-67.55 8.54-16.32 18.33-31.89 27.62-47.21 6.03-9.29 12.05-18.58 18.33-27.88 15.07-22.35 31.89-44.2 52.49-60.52 3.26-2.76 6.78-5.27 10.3-7.53 8.79-5.27 17.58-10.55 27.12-8.29 10.3 5.27 12.56 21.6 12.31 35.66.75 6.28 20.59 9.54 22.1 0 2.26-11.55 2.51-23.1 0-34.15Z" style="fill:#bc83fb"/><ellipse cx="110.38" cy="125.87" rx="31.64" ry="15.07" transform="rotate(-59.36 110.38 125.869)" style="fill:#e6c9ff"/><ellipse cx="170.8" cy="50.99" rx="24.36" ry="11.55" transform="rotate(-42.1 170.79 50.994)" style="fill:#e6c9ff"/><ellipse cx="223.44" cy="17.34" rx="15.07" ry="7.03" transform="rotate(-14.63 223.446 17.36)" style="fill:#e6c9ff"/><ellipse cx="73.98" cy="214.22" rx="24.36" ry="11.55" transform="rotate(-76.61 73.98 214.22)" style="fill:#e6c9ff"/><ellipse cx="69.99" cy="276.5" rx="7.03" ry="15.07" transform="rotate(-14.09 69.999 276.513)" style="fill:#e6c9ff"/><path d="M213.9 50.23c-20.59 16.57-37.42 38.17-52.49 60.52-1.76-9.79-8.29-33.15-32.14-45.71 15.82-17.08 34.15-32.65 53.49-44.95 7.28 5.02 21.6 15.32 31.14 30.14ZM285.97 70.07c-1 6.03-2.26 12.05-3.77 17.83-.25 1.51-.75 3.01-1 4.52-5.27 21.85-14.06 42.69-24.11 62.78-19.34 36.41-41.19 72.33-69.06 102.71-4.27 4.77-8.79 9.29-13.56 13.81l-9.79 9.04c-8.04 6.78-16.32 13.31-25.36 19.34l-10.55-20.59a83.375 83.375 0 0 0 16.07-8.79c1.26-1 2.76-2.01 4.02-3.01 4.27-3.01 8.54-6.28 12.56-9.79 4.52-3.77 9.04-7.79 13.31-12.05 17.83-17.08 33.4-36.41 46.71-57.26 18.33-29.13 32.65-60.52 39.68-93.67.5-2.51 1-5.02 1.26-7.28 1-5.52 1.26-11.3 1.51-17.08v-.25h22.1v-.25Z" style="fill:#8747cc"/><path d="M279.94 160.98c-7.28-18.58-16.07-36.41-26.12-52.23-25.87-40.43-66.8-81.37-111.25-101.21-31.39-14.07-70.06-10.55-79.1 28.63-1.76 7.79-2.01 15.82-1.51 23.86.75 10.3 23.1 6.53 23.61 0 1-11.05 4.02-21.6 12.05-25.62 9.54-2.26 18.33 3.01 27.12 8.29 34.91 23.1 58.76 61.28 81.37 96.18 9.29 15.32 19.09 30.89 27.62 47.21 11.3 21.6 20.59 43.95 23.86 67.55 1 10.3 2.51 26.37-8.29 30.14-8.29 2.01-18.33-.25-27.62-4.02l-15.82 17.33c10.55 6.78 21.09 12.05 32.14 15.32 39.68 8.79 59.52-25.11 60.27-59.52v-6.53c-1-28.38-7.79-58.01-18.33-85.38Z" style="fill:#bc83fb"/><circle cx="174.47" cy="156.96" r="22.6" style="fill:#8747cc"/><ellipse cx="238.22" cy="125.8" rx="15.07" ry="31.89" transform="rotate(-30.64 238.221 125.792)" style="fill:#e6c9ff"/><ellipse cx="178.05" cy="50.87" rx="11.55" ry="24.36" transform="rotate(-47.9 178.042 50.875)" style="fill:#e6c9ff"/><ellipse cx="125.13" cy="17.29" rx="7.03" ry="15.07" transform="rotate(-75.37 125.123 17.29)" style="fill:#e6c9ff"/><ellipse cx="274.69" cy="214.18" rx="11.55" ry="24.36" transform="rotate(-13.39 274.672 214.168)" style="fill:#e6c9ff"/><ellipse cx="278.63" cy="276.54" rx="15.07" ry="7.03" transform="rotate(-75.91 278.63 276.548)" style="fill:#e6c9ff"/><path d="M297.77 245.86c-23.36 13.31-40.18 7.53-40.18 7.53-3.26-23.61-12.56-45.96-23.86-67.55 24.11-6.53 38.67-17.58 46.21-25.11 10.55 27.62 17.33 57.26 17.83 85.13ZM115.45 186.09c-11.3 21.6-20.59 43.95-23.86 67.55-1.76.5-18.08 5.02-40.18-7.79.5-27.88 7.28-57.51 18.08-85.13 7.28 7.53 21.6 18.83 45.96 25.36Z" style="fill:#8747cc"/><path d="M332.18 129.84c-9.04-9.04-20.09-15.07-31.89-19.84l-6.28 20.59c9.29 5.78 17.83 13.06 21.35 22.85 3.01 11.3-11.55 18.58-20.84 23.1-37.17 16.57-81.11 16.07-121.55 16.57-40.18-.75-84.13-.75-121.04-17.58-8.79-4.52-23.1-11.8-20.34-22.6 2.01-6.28 6.78-11.8 12.56-16.83l-5.78-23.61c-9.04 4.52-17.33 9.79-24.11 16.07-28.13 27.88-10.55 62.03 17.58 80.61 39.43 26.12 94.42 38.93 141.13 38.93s101.71-12.31 141.13-38.42c27.88-18.58 45.2-51.98 18.08-79.86Z" style="fill:#bc83fb"/><ellipse cx="173.21" cy="225.77" rx="30.89" ry="14.57" style="fill:#e6c9ff"/><ellipse cx="265.9" cy="212.47" rx="23.86" ry="11.3" transform="rotate(-17.26 265.89 212.476)" style="fill:#e6c9ff"/><ellipse cx="320.12" cy="184.94" rx="14.82" ry="7.03" transform="rotate(-44.73 320.116 184.941)" style="fill:#e6c9ff"/><ellipse cx="81.14" cy="212.59" rx="11.3" ry="23.86" transform="rotate(-72.74 81.135 212.584)" style="fill:#e6c9ff"/><ellipse cx="27" cy="184.77" rx="7.03" ry="14.82" transform="rotate(-45.27 27.003 184.774)" style="fill:#e6c9ff"/><path d="M65.98 123.06c-7.03 3.01-15.07 7.53-21.85 13.06-7.28 0-10.05-17.83-5.78-23.61 6.53-3.26 13.31-6.03 20.59-8.54 4.52 4.77 6.53 12.31 7.03 19.09ZM300.28 110c4.52 6.28-.75 20.59-6.28 20.59-3.77-2.51-7.79-4.52-11.55-6.53.5-6.28 2.01-13.31 5.52-18.33 4.27 1.26 8.29 2.76 12.31 4.27ZM221.43 279.51c4.27 6.53-9.04 20.09-15.82 17.33-7.28-4.77-14.31-10.3-21.35-16.32 3.26-5.27 8.29-10.55 16.07-13.31 1.26 1 2.76 2.01 4.02 3.01 5.02 3.26 10.8 6.78 17.08 9.29ZM164.42 280.52c-8.04 6.78-16.32 13.31-25.36 19.34-7.79 2.76-16.32-13.06-10.55-20.59a83.375 83.375 0 0 0 16.07-8.79c1.26-1 2.76-2.01 4.02-3.01 7.53 2.51 12.56 7.79 15.82 13.06ZM285.97 70.07c-1 6.03-2.26 12.05-3.77 17.83-.25 1.51-.75 3.01-1 4.52-6.03 0-13.06-1-18.58-5.02 1-5.52 1.26-11.3 1.51-17.08v-.25h21.85ZM86.82 87.9c-5.78 3.77-12.81 4.52-18.83 4.52-.25-1.51-.75-3.01-1-4.52-2.51-9.04-4.27-18.33-5.02-27.88h23.61c-.25 2.76-.25 5.52-.25 8.04-.25 6.53.5 13.31 1.51 19.84Z" style="fill:#bc83fb"/><path d="M15.75 389.51V354.1c0-1.26 1-1.76 1.76-1.76h12.81c1 0 1.76.5 1.76 1.76V388c0 4.02 2.26 6.03 5.02 6.03h5.27c3.01 0 5.78-2.01 5.78-6.03v-33.9c0-1.26 1-1.76 1.76-1.76h12.81c1.26 0 2.01.5 2.01 1.76v51.98c0 1.26-.75 2.01-2.01 2.01H49.91c-.75 0-1.76-.75-1.76-2.01v-3.77h-1.76c-2.26 3.77-6.78 6.03-12.56 6.03h-1c-12.56 0-17.08-6.78-17.08-18.83ZM75.77 392.52c0-1.51.75-2.51 1.76-2.51h12.31c1.26 0 2.01.5 2.01 1.51 1 2.51 2.51 3.01 5.78 3.01h3.77c4.27 0 5.02-2.01 5.02-3.26 0-1.76 0-3.77-5.27-4.02l-5.27-.5c-16.32-1.76-20.09-8.04-20.09-17.33 0-12.81 7.79-17.58 19.59-17.58h7.53c11.3 0 18.83 6.28 18.83 17.08 0 1.26-.5 2.01-2.01 2.01h-11.05c-1.51 0-2.76-.5-3.01-1.76-.5-2.01-2.01-3.26-5.02-3.26h-4.77c-2.76 0-3.77 1.51-3.77 3.26 0 1.51 0 3.77 5.02 4.27l5.27.5c15.82 1.76 20.34 5.78 20.34 16.83 0 12.31-6.53 17.83-21.35 17.83h-5.02c-13.56 0-20.59-5.52-20.59-16.07ZM132.78 389v-17.58c0-11.8 5.78-19.59 20.59-19.59h6.03c14.82 0 20.59 7.79 20.59 19.59v11.55c0 2.26-1.26 3.52-3.77 3.52h-27.37v2.26c0 3.52 2.51 6.03 8.04 6.03h1c7.28 0 10.05-.75 13.31-2.26 1-.5 2.01-.25 2.51.75l3.77 5.78c.75 1 .75 1.76.25 2.26-4.27 4.27-12.05 7.03-19.59 7.03h-1.76c-17.83.25-23.61-8.04-23.61-19.34Zm30.89-14.06v-3.26c0-4.02-2.51-5.27-5.02-5.27h-4.27c-3.01 0-5.27 1.26-5.27 5.27v3.52h14.57v-.25ZM192.3 406.08v-74.33c0-1 .75-1.76 1.76-1.76h13.06c1 0 1.76.75 1.76 1.76v74.33c0 1-.75 1.76-1.76 1.76h-13.06c-1 0-1.76-.5-1.76-1.76ZM222.43 406.08V354.1c0-1.26.75-1.76 1.76-1.76H237c.75 0 1.76.5 1.76 1.76v3.77h1.76c2.26-3.77 6.78-6.03 12.81-6.03h1c12.56 0 16.83 6.78 16.83 18.83v35.41c0 1.26-1 2.01-1.76 2.01h-12.81c-1.26 0-2.01-.75-2.01-2.01v-33.9c0-4.02-2.26-6.03-5.02-6.03h-5.27c-3.01 0-5.78 2.01-5.78 6.03v33.65c0 1.26-1 2.01-1.76 2.01h-12.81c-1 0-1.51-.5-1.51-1.76ZM283.71 406.08v-74.33c0-1.26.75-1.76 1.76-1.76h12.81c1 0 1.76.5 1.76 1.76v40.18l17.58-18.08c1-1 2.01-1.51 3.26-1.51h12.81c1.51 0 3.26 1.76 1 4.02l-17.83 18.08 19.84 30.39c1 1.51.25 3.01-1.76 3.01h-11.55c-1.76 0-3.01-.75-4.27-2.26l-13.06-20.59-6.03 6.03v14.82c0 1.26-.75 2.01-1.76 2.01h-12.81c-1 0-1.76-.5-1.76-1.76Z" style="fill:#fff;stroke:#000;stroke-miterlimit:10"/></svg>